<?xml version="1.0" standalone="no"?>
<!DOCTYPE svg PUBLIC "-//W3C//DTD SVG 20010904//EN"
 "http://www.w3.org/TR/2001/REC-SVG-20010904/DTD/svg10.dtd">
<svg version="1.0" xmlns="http://www.w3.org/2000/svg"
 width="500.000000pt" height="500.000000pt" viewBox="0 0 500.000000 500.000000"
 preserveAspectRatio="xMidYMid meet">
<metadata>
Created by potrace 1.14, written by Peter Selinger 2001-2017
</metadata>
<g transform="translate(0.000000,500.000000) scale(0.100000,-0.100000)"
fill="#000000" stroke="none">
<path d="M0 2500 l0 -2500 2500 0 2500 0 0 2500 0 2500 -2500 0 -2500 0 0
-2500z m2975 1299 c78 -37 155 -143 155 -214 0 -16 -11 -77 -24 -135 -13 -58
-23 -106 -22 -107 1 -1 47 105 103 235 l101 237 596 3 596 2 0 -67 c0 -38 -7
-626 -15 -1308 -8 -682 -15 -1252 -15 -1267 l0 -28 -424 0 -423 0 -7 37 c-3
21 -6 88 -6 148 l-1 110 -145 163 c-80 89 -149 160 -153 158 -4 -3 -65 -142
-136 -311 l-129 -305 -1031 2 c-1149 3 -1051 -3 -1128 75 -42 41 -71 90 -81
139 -5 22 67 369 254 1230 144 659 263 1205 265 1212 4 9 175 12 815 12 802 0
811 0 855 -21z"/>
<path d="M1967 3138 c-17 -68 -287 -1310 -287 -1318 0 -6 51 -10 129 -10 l129
0 21 93 c12 50 40 179 64 285 l43 192 238 -150 c131 -83 240 -149 243 -147 2
3 51 114 108 248 l104 243 -32 21 c-18 12 -140 88 -272 170 -132 81 -246 154
-254 160 -11 11 -10 29 8 112 11 54 21 104 21 111 0 9 -34 12 -129 12 -125 0
-129 -1 -134 -22z"/>
<path d="M3546 2412 c-49 -119 -91 -223 -93 -229 -4 -10 17 -13 85 -13 l89 0
5 228 c3 125 5 228 4 229 -1 1 -42 -95 -90 -215z"/>
</g>
</svg>
